<svg width="9" height="14" viewBox="0 0 9 14" fill="none" xmlns="http://www.w3.org/2000/svg">
<path d="M1.59516 0.26832C1.42154 0.0947002 1.20057 -6.00231e-07 0.940139 -6.22998e-07C0.419282 -6.68533e-07 0.00101876 0.410371 0.00101871 0.931228C0.00101869 1.19166 0.111503 1.42841 0.293014 1.60992L5.81725 7.00789L0.293013 12.3901C0.111502 12.5716 0.00101767 12.8162 0.00101765 13.0688C0.00101761 13.5896 0.419281 14 0.940138 14C1.20057 14 1.42154 13.9053 1.59515 13.7317L7.73495 7.73393C7.95592 7.52875 8.05852 7.27621 8.06641 7C8.06641 6.72379 7.95592 6.48703 7.73495 6.27396L1.59516 0.26832Z" fill="#585854"/>
</svg>
