<svg width="17" height="16" viewBox="0 0 17 16" fill="none" xmlns="http://www.w3.org/2000/svg">
<path d="M7.39572 15.6933C7.59414 15.8918 7.84667 16 8.14431 16C8.73957 16 9.21759 15.531 9.21759 14.9357C9.21759 14.6381 9.09132 14.3675 8.88388 14.1601L3.5 8.82976L17 8.82976V7L3.5 7L8.88388 1.83991C9.09132 1.63247 9.21759 1.35287 9.21759 1.06426C9.21759 0.468997 8.73957 0 8.14431 0C7.84667 0 7.59414 0.10823 7.39572 0.306652L0.378805 7.16122C0.126268 7.39572 0.00901917 7.68433 0 8C0 8.31567 0.126268 8.58625 0.378805 8.82976L7.39572 15.6933Z" fill="#585854"/>
</svg>
