<svg width="9" height="14" viewBox="0 0 9 14" fill="none" xmlns="http://www.w3.org/2000/svg">
<path d="M1.59418 0.26832C1.42056 0.0947002 1.19959 -6.00231e-07 0.939163 -6.22998e-07C0.418306 -6.68533e-07 4.2196e-05 0.410371 4.21505e-05 0.931228C4.21277e-05 1.19166 0.110526 1.42841 0.292037 1.60992L5.81628 7.00789L0.292036 12.3901C0.110525 12.5716 4.11115e-05 12.8162 4.10894e-05 13.0688C4.10439e-05 13.5896 0.418304 14 0.939161 14C1.19959 14 1.42056 13.9053 1.59418 13.7317L7.73398 7.73393C7.95495 7.52875 8.05754 7.27621 8.06543 7C8.06543 6.72379 7.95495 6.48703 7.73398 6.27396L1.59418 0.26832Z" fill="#F6DDAA"/>
</svg>
