<svg width="30" height="26" viewBox="0 0 30 26" fill="none" xmlns="http://www.w3.org/2000/svg">
<path d="M22.1045 9.51818L16.1318 0.572727C15.8727 0.190909 15.4364 0 15 0C14.5636 0 14.1273 0.190909 13.8682 0.586364L7.89545 9.51818H1.36364C0.613636 9.51818 0 10.1318 0 10.8818C0 11.0045 0.0136363 11.1273 0.0545454 11.25L3.51818 23.8909C3.83182 25.0364 4.88182 25.8818 6.13636 25.8818H23.8636C25.1182 25.8818 26.1682 25.0364 26.4955 23.8909L29.9591 11.25L30 10.8818C30 10.1318 29.3864 9.51818 28.6364 9.51818H22.1045ZM10.9091 9.51818L15 3.51818L19.0909 9.51818H10.9091ZM15 20.4273C13.5 20.4273 12.2727 19.2 12.2727 17.7C12.2727 16.2 13.5 14.9727 15 14.9727C16.5 14.9727 17.7273 16.2 17.7273 17.7C17.7273 19.2 16.5 20.4273 15 20.4273Z" fill="#F6DDAA"/>
</svg>
