<svg width="20" height="20" viewBox="0 0 20 20" fill="none" xmlns="http://www.w3.org/2000/svg">
<path fill-rule="evenodd" clip-rule="evenodd" d="M6.84849 0.152288C7.07603 0.365239 7.08786 0.722329 6.87491 0.949871C6.70052 1.13621 6.60073 1.3801 6.5944 1.63508C6.5958 1.75649 6.65095 1.85534 6.84606 2.08858C6.85744 2.10218 6.86995 2.11685 6.88336 2.13258C7.05132 2.32959 7.36069 2.69246 7.36069 3.19612C7.36069 3.22659 7.35822 3.25701 7.35331 3.28708C7.27498 3.76661 7.13946 4.235 6.94962 4.68227C6.82786 4.96915 6.49659 5.103 6.20972 4.98123C5.92284 4.85947 5.78899 4.5282 5.91075 4.24133C6.05729 3.89608 6.16409 3.53537 6.22914 3.16613C6.21816 3.11506 6.17001 3.03933 5.98042 2.81269C5.97769 2.80943 5.97494 2.80614 5.97215 2.80281C5.78535 2.57962 5.4658 2.19784 5.4658 1.63025L5.4659 1.61946C5.47614 1.08342 5.68456 0.570147 6.05091 0.178705C6.26386 -0.0488367 6.62095 -0.0606642 6.84849 0.152288ZM13.3603 0.152288C13.5879 0.365239 13.5997 0.722329 13.3868 0.949871C13.2124 1.1362 13.1126 1.38009 13.1063 1.63507C13.1077 1.75648 13.1628 1.85533 13.3579 2.08858C13.3693 2.10218 13.3818 2.11685 13.3952 2.13258C13.5632 2.32959 13.8725 2.69245 13.8725 3.19612C13.8725 3.22457 13.8704 3.25299 13.8661 3.28112C13.7903 3.7787 13.6379 4.26153 13.4143 4.71246C13.2759 4.99167 12.9373 5.10579 12.6581 4.96736C12.3789 4.82892 12.2647 4.49035 12.4032 4.21114C12.5665 3.88171 12.6804 3.53014 12.7413 3.16775C12.731 3.11665 12.6839 3.04174 12.4923 2.81269L12.484 2.80281C12.2972 2.57962 11.9777 2.19784 11.9777 1.63025L11.9778 1.61946C11.988 1.08342 12.1964 0.570147 12.5628 0.178705C12.7757 -0.0488367 13.1328 -0.0606642 13.3603 0.152288ZM10.1775 0.158426C10.4016 0.374944 10.4078 0.732176 10.1913 0.956327C10.0163 1.13749 9.918 1.37923 9.91689 1.63107C9.91713 1.75434 9.97133 1.85278 10.1686 2.08858C10.18 2.10218 10.1925 2.11685 10.2059 2.13258C10.3738 2.32959 10.6832 2.69246 10.6832 3.19612C10.6832 3.22457 10.6811 3.25299 10.6768 3.28112C10.601 3.7787 10.4485 4.26153 10.225 4.71246C10.0865 4.99167 9.74795 5.10579 9.46874 4.96736C9.18953 4.82892 9.07541 4.49035 9.21385 4.21114C9.37719 3.88171 9.4911 3.53014 9.552 3.16775C9.54169 3.11665 9.49454 3.04174 9.30294 2.81269L9.29467 2.80281C9.10787 2.57962 8.78832 2.19784 8.78832 1.63025L8.78832 1.62837C8.79012 1.08489 9.00199 0.563137 9.37957 0.172248C9.59608 -0.0519029 9.95332 -0.0580911 10.1775 0.158426ZM3.38835 8.76847C3.0925 9.02107 3.02076 9.21995 3.02076 9.35079C3.02076 9.48163 3.0925 9.68051 3.38835 9.93311C3.68208 10.1839 4.14031 10.4353 4.75573 10.6575C5.98182 11.1003 7.71293 11.385 9.65225 11.385C11.5916 11.385 13.3227 11.1003 14.5488 10.6575C15.1642 10.4353 15.6224 10.1839 15.9161 9.93311C16.212 9.68051 16.2837 9.48163 16.2837 9.35079C16.2837 9.21995 16.212 9.02107 15.9161 8.76847C15.6224 8.51769 15.1642 8.26633 14.5488 8.04409C13.3227 7.60132 11.5916 7.31654 9.65225 7.31654C7.71293 7.31654 5.98182 7.60132 4.75573 8.04409C4.14031 8.26633 3.68208 8.51769 3.38835 8.76847ZM1.89219 9.35079C1.89219 8.76406 2.22316 8.27934 2.65555 7.91017C3.09007 7.53919 3.68565 7.23061 4.37241 6.98261C5.75067 6.48489 7.61745 6.18797 9.65225 6.18797C11.687 6.18797 13.5538 6.48489 14.9321 6.98261C15.6188 7.23061 16.2144 7.53919 16.6489 7.91017C17.0228 8.22936 17.3208 8.63492 17.3947 9.11811C17.4267 9.18891 17.4445 9.2675 17.4445 9.35024V11.0082L18.5045 10.5213C18.7877 10.3912 19.1227 10.5153 19.2528 10.7985C19.3829 11.0817 19.2588 11.4167 18.9756 11.5468L17.4445 12.2502V16.2864C17.4445 17.2252 16.6718 18.1611 15.4412 18.8278C14.1742 19.5143 12.2928 20 9.74875 20C7.20427 20 5.28626 19.5142 3.98289 18.8316C3.33183 18.4906 2.82103 18.0934 2.46659 17.6703C2.11585 17.2516 1.89217 16.774 1.89217 16.2864L1.89218 12.265L0.328865 11.5468C0.0456712 11.4167 -0.0784404 11.0817 0.0516543 10.7985C0.181749 10.5153 0.516786 10.3912 0.79998 10.5213L1.89218 11.023L1.89219 9.35079ZM16.3159 11.0433V16.2864C16.3159 16.6026 16.0001 17.2414 14.9036 17.8356C13.8435 18.4099 12.1591 18.8714 9.74875 18.8714C7.3388 18.8714 5.61066 18.4101 4.50649 17.8318C3.95379 17.5423 3.57047 17.2306 3.33174 16.9456C3.0893 16.6562 3.02075 16.4264 3.02075 16.2864L3.02076 11.0647C3.40179 11.3168 3.8619 11.5346 4.37241 11.719C5.75067 12.2167 7.61745 12.5136 9.65225 12.5136C11.687 12.5136 13.5538 12.2167 14.9321 11.719C15.457 11.5294 15.9287 11.3044 16.3159 11.0433Z" fill="#F6DDAA"/>
</svg>
