<svg width="19" height="19" viewBox="0 0 19 19" fill="none" xmlns="http://www.w3.org/2000/svg">
<path d="M9.46918 1.00001C7.78934 1.00611 6.14897 1.50982 4.7552 2.44753C3.36143 3.38525 2.27676 4.71493 1.63816 6.26866C0.999554 7.8224 0.835653 9.53052 1.16715 11.1773C1.49865 12.8242 2.31067 14.3358 3.5007 15.5215C4.69073 16.7071 6.20538 17.5136 7.85342 17.839C9.50145 18.1644 11.209 17.9942 12.7603 17.3499C14.3117 16.7055 15.6374 15.616 16.5699 14.2187C17.5025 12.8215 18.0001 11.1793 18 9.49945C17.998 8.38123 17.7757 7.27436 17.3459 6.24204C16.916 5.20972 16.2871 4.27218 15.4949 3.48293C14.7027 2.69368 13.7629 2.0682 12.729 1.64218C11.6951 1.21616 10.5874 0.99795 9.46918 1.00001V1.00001Z" stroke="#F6DDAA" stroke-width="2" stroke-miterlimit="10" stroke-linecap="round"/>
<path d="M10.8068 13.3378C10.9352 13.3491 11.0551 13.4066 11.1444 13.4996C11.2337 13.5925 11.2863 13.7146 11.2926 13.8434V13.9382C11.2948 14.0036 11.284 14.0687 11.2606 14.1298C11.2372 14.1908 11.2019 14.2466 11.1566 14.2937C11.1113 14.3409 11.057 14.3785 10.9969 14.4042C10.9368 14.43 10.8721 14.4435 10.8068 14.4438H8.19374C8.12759 14.4462 8.06168 14.4347 8.00032 14.4098C7.93896 14.385 7.88354 14.3475 7.83767 14.2998C7.79181 14.252 7.75654 14.1951 7.73418 14.1328C7.71182 14.0705 7.70287 14.0042 7.70791 13.9382V13.8451C7.71415 13.7164 7.76679 13.5943 7.8561 13.5013C7.94541 13.4084 8.06535 13.3509 8.19374 13.3395C8.32223 13.3281 8.44224 13.2706 8.53156 13.1775C8.62088 13.0844 8.67346 12.9622 8.67957 12.8333V9.44763C8.67333 9.31888 8.62069 9.19675 8.53138 9.1038C8.44207 9.01086 8.32214 8.95339 8.19374 8.94201C8.06535 8.93064 7.94541 8.87317 7.8561 8.78022C7.76679 8.68728 7.71415 8.56515 7.70791 8.4364V8.34098C7.71415 8.21223 7.76679 8.0901 7.8561 7.99715C7.94541 7.90421 8.06535 7.84674 8.19374 7.83536H9.86535C9.99374 7.84674 10.1137 7.90421 10.203 7.99715C10.2923 8.0901 10.3449 8.21223 10.3512 8.34098V12.7978C10.3424 12.8638 10.3475 12.9308 10.3661 12.9947C10.3847 13.0585 10.4165 13.1178 10.4594 13.1687C10.5023 13.2195 10.5554 13.2608 10.6152 13.2899C10.675 13.3191 10.7403 13.3354 10.8068 13.3378ZM10.2598 5.4289V5.64825C10.2621 5.71359 10.2512 5.77873 10.2279 5.83979C10.2045 5.90086 10.1691 5.95661 10.1238 6.00376C10.0785 6.0509 10.0242 6.08848 9.96412 6.11426C9.90403 6.14005 9.83938 6.15351 9.774 6.15386H8.98387C8.91654 6.16119 8.84843 6.15298 8.78477 6.12985C8.72111 6.10673 8.66361 6.06931 8.61668 6.02047C8.56975 5.97163 8.53466 5.91268 8.51409 5.84815C8.49352 5.78362 8.48803 5.71523 8.49804 5.64825V5.4289C8.49804 5.11238 8.6499 4.85986 8.98387 4.85986H9.774C9.9119 4.87577 10.0387 4.94329 10.1288 5.04886C10.2189 5.15443 10.2657 5.29021 10.2598 5.4289Z" fill="#F6DDAA"/>
</svg>
