<svg width="22" height="24" viewBox="0 0 22 24" fill="none" xmlns="http://www.w3.org/2000/svg">
<path d="M14.974 11.869L11.286 15.6M5.949 8.618V2.989C5.95189 2.46238 6.16237 1.95814 6.53476 1.58576C6.90714 1.21337 7.41137 1.00289 7.938 1H18.468C18.9946 1.00289 19.4989 1.21337 19.8712 1.58576C20.2436 1.95814 20.4541 2.46238 20.457 2.989V20.748C20.4541 21.2746 20.2436 21.7789 19.8712 22.1512C19.4989 22.5236 18.9946 22.7341 18.468 22.737H7.938C7.41137 22.7341 6.90714 22.5236 6.53476 22.1512C6.16237 21.7789 5.95189 21.2746 5.949 20.748V15.023V8.618ZM1 11.869H14.974H1ZM14.974 11.869L11.529 8.424L14.974 11.869Z" stroke="#F6DDAA" stroke-width="2" stroke-linecap="round" stroke-linejoin="round"/>
</svg>
