<svg width="18" height="14" viewBox="0 0 18 14" fill="none" xmlns="http://www.w3.org/2000/svg">
<path d="M5.27366 2.94663C5.01133 2.05791 4.29927 2.15532 3.81241 2.56924C2.61311 3.67706 1.05153 6.0023 2.05095 9.35049C2.88796 12.187 6.37074 14.001 6.37074 14.001H2.31074C2.31074 14.001 0.214392 11.6514 0.026992 8.88791C-0.210361 5.39402 1.18893 3.1905 2.81298 1.75402C4.33708 0.402702 5.78624 0.000976562 5.78624 0.000976562L8.75059 9.71347L11.7149 0.000976562C11.7149 0.000976562 13.1641 0.402703 14.6882 1.75402C16.3122 3.1905 17.7115 5.39402 17.4742 8.88791C17.2868 11.6514 15.1904 14.001 15.1904 14.001H11.1304C11.1304 14.001 14.6129 12.187 15.4502 9.35049C16.4496 6.00268 14.8881 3.67744 13.6888 2.56924C13.2015 2.15532 12.4895 2.05791 12.2275 2.94663C11.328 5.78315 8.75096 13.9104 8.75096 13.9104C8.75096 13.9104 6.17387 5.78043 5.2744 2.94663H5.27366Z" fill="#204982"/>
</svg>
