<svg width="18" height="20" viewBox="0 0 18 20" fill="none" xmlns="http://www.w3.org/2000/svg">
<path d="M17.8121 11.8824C17.5768 11.5295 17.2238 11.5295 16.9885 11.6471L14.9744 12.7554L10.1438 9.97536L14.8721 7.25417L16.871 8.35301C16.871 8.47065 16.9886 8.47065 17.1062 8.47065C17.3415 8.47065 17.5768 8.35301 17.5768 8.23537C17.6944 7.88245 17.5768 7.52947 17.3415 7.41183L15.9839 6.61303L17.458 5.76481C17.8109 5.52953 17.8109 5.17654 17.6933 4.94126C17.458 4.58835 17.105 4.58835 16.8697 4.70599L15.3403 5.58585V3.88237C15.3403 3.52946 15.105 3.29411 14.752 3.29411C14.3991 3.29411 14.1638 3.52939 14.1638 3.88237V6.26356L9.45785 8.97184V3.27058L11.3402 2.23529C11.6931 2.00001 11.6931 1.64702 11.5755 1.41174C11.3402 1.05882 10.9872 1.05882 10.752 1.17646L9.45785 1.93767V0.588265C9.45785 0.235347 9.22257 0 8.86959 0C8.51667 0 8.28132 0.235279 8.28132 0.588265V2.07654L6.75194 1.17653C6.39902 1.05889 6.04604 1.17653 5.9284 1.41181C5.81076 1.76473 5.9284 2.11771 6.16367 2.23535L8.28132 3.40005V8.90362L3.57554 6.19534V3.76473C3.57554 3.41182 3.34026 3.17647 2.98727 3.17647C2.63429 3.17647 2.39901 3.41175 2.39901 3.76473V5.51885L0.987334 4.70592C0.634416 4.58828 0.28143 4.70592 0.16379 4.9412C0.0461505 5.29412 0.16379 5.6471 0.399069 5.76474L1.71318 6.52122L0.399069 7.29419C0.0461505 7.52947 0.0461505 7.88245 0.16379 8.11773C0.28143 8.35301 0.399069 8.47065 0.634348 8.47065C0.634348 8.47065 0.751988 8.47065 0.869627 8.23537L2.8238 7.16005L7.71442 9.97421L2.98849 12.6942L0.869695 11.5283C0.516776 11.4107 0.16379 11.4107 0.0461506 11.7636C-0.0714889 12.1166 0.0461505 12.4695 0.28143 12.5872L1.71203 13.4283L0.517858 14.1177C0.164939 14.353 0.164939 14.706 0.282579 14.9412C0.400218 15.1765 0.517858 15.2941 0.753137 15.2941C0.870776 15.2941 0.870776 15.2941 1.10606 15.1765L2.28252 14.4989V16.1177C2.28252 16.4706 2.5178 16.706 2.87078 16.706C3.22377 16.706 3.45905 16.4707 3.57669 16.0001V13.7542L8.28261 11.0459V16.6118L6.40024 17.6471C6.04732 17.8824 6.04732 18.2353 6.16496 18.4706C6.40024 18.8235 6.75322 18.8235 6.9885 18.7059L8.28261 17.9447V19.4117C8.28261 19.7647 8.51788 20 8.87087 20C9.22379 20 9.45914 19.7647 9.45914 19.4117V17.8059L10.9885 18.7059C10.9885 18.8235 11.1062 18.8235 11.2238 18.8235C11.3414 18.8235 11.5767 18.7059 11.9297 18.4706C12.0473 18.1177 11.9297 17.7647 11.6944 17.6471L9.45914 16.4177V10.9788L14.2827 13.7553V16.1188C14.2827 16.4718 14.518 16.7071 14.871 16.7071C15.2239 16.7071 15.4592 16.4718 15.5769 16.2365V14.5001L16.7533 15.1777C16.7533 15.2954 16.871 15.2954 16.9886 15.2954C17.2239 15.2954 17.4592 15.1777 17.5769 14.9424C17.6945 14.5895 17.5769 14.2365 17.3416 14.1189L16.2475 13.4895L17.5769 12.7071C17.9297 12.4707 17.9297 12.1177 17.8121 11.8824Z" fill="#F6DDAA"/>
</svg>
