<svg width="130" height="15" viewBox="0 0 130 15" fill="none" xmlns="http://www.w3.org/2000/svg">
<path d="M11.1399 14.2808H8.95348C8.66808 14.2808 8.53047 14.1534 8.53047 13.8986V3.29793C8.53896 3.23773 8.53335 3.17636 8.51407 3.1187C8.49479 3.06103 8.46236 3.00863 8.41937 2.96563C8.37637 2.92264 8.32398 2.89022 8.26631 2.87094C8.20864 2.85166 8.14728 2.84605 8.08707 2.85454H3.46966C3.17407 2.85454 3.02627 2.98195 3.02627 3.23678V13.868C3.03403 13.9245 3.02852 13.982 3.01018 14.036C2.99183 14.09 2.96116 14.1389 2.9206 14.179C2.88005 14.2191 2.8307 14.2491 2.7765 14.2668C2.7223 14.2845 2.66474 14.2893 2.60836 14.2808H0.411776C0.136567 14.2808 0.00404873 14.1534 0.00404873 13.8986V0.647763C-0.00439935 0.591382 0.000416256 0.533809 0.0180933 0.479609C0.0357703 0.425409 0.065827 0.376071 0.105891 0.335512C0.145955 0.294954 0.194924 0.26429 0.248903 0.245949C0.302882 0.227608 0.360398 0.222096 0.416878 0.229852H11.145C11.4202 0.229852 11.5578 0.362361 11.5578 0.617185V13.868C11.5655 13.9245 11.56 13.982 11.5417 14.036C11.5233 14.09 11.4927 14.1389 11.4521 14.179C11.4115 14.2191 11.3622 14.2491 11.308 14.2668C11.2538 14.2845 11.1962 14.2893 11.1399 14.2808Z" fill="#F6DDAA"/>
<path d="M25.991 7.03877C25.9943 7.14721 25.9762 7.25524 25.9377 7.35668C25.8992 7.45812 25.8411 7.55098 25.7667 7.62996C25.7044 7.7046 25.6264 7.76471 25.5384 7.80609C25.4504 7.84746 25.3544 7.8691 25.2571 7.86949H18.0965C18.0144 7.86371 17.932 7.87626 17.8553 7.90623C17.7786 7.9362 17.7096 7.98284 17.6531 8.04277C17.5497 8.15142 17.4914 8.29536 17.4901 8.4454V8.99072C17.4799 9.73298 17.7533 10.4511 18.2545 10.9987C18.5037 11.2767 18.8108 11.4966 19.1543 11.6428C19.4977 11.789 19.8691 11.8579 20.2422 11.8447C20.8216 11.8631 21.3927 11.703 21.8781 11.3861C22.3269 11.0807 22.7272 10.7096 23.0656 10.2852C23.1434 10.182 23.2472 10.1011 23.3663 10.0508C23.4367 10.0379 23.5092 10.0413 23.5781 10.0607C23.647 10.0802 23.7105 10.1151 23.7638 10.1629L25.1654 11.0497C25.301 11.1263 25.419 11.2305 25.5119 11.3555C25.5765 11.4472 25.5663 11.5695 25.4813 11.7224C25.0028 12.6391 24.2364 13.3733 23.3 13.812C21.5991 14.5717 19.6752 14.6663 17.908 14.077C17.2263 13.8466 16.5974 13.4828 16.0579 13.0067C15.5458 12.5443 15.1435 11.9731 14.8807 11.3351C14.5977 10.6396 14.4573 9.89438 14.4678 9.14361V5.56079C14.4577 4.78546 14.6033 4.01599 14.8959 3.29795C15.1712 2.63934 15.5788 2.04434 16.0936 1.54986C16.6234 1.05257 17.2472 0.666168 17.9284 0.413343C18.67 0.130297 19.4586 -0.00977299 20.2523 0.00052971C21.0496 -0.00781185 21.8419 0.126825 22.5916 0.398055C23.2687 0.644254 23.8905 1.02183 24.4213 1.50909C24.9287 1.99828 25.322 2.59342 25.5731 3.25208C25.8548 3.97638 25.9949 4.748 25.9859 5.52511V7.05406L25.991 7.03877ZM22.9688 5.22442C22.9638 4.51022 22.6931 3.82347 22.2094 3.29795C21.9535 3.05298 21.65 2.86322 21.3178 2.74048C20.9855 2.61774 20.6315 2.56462 20.2778 2.58444C19.9157 2.55246 19.5512 2.608 19.2151 2.74636C18.8789 2.88473 18.5809 3.10187 18.3463 3.37949C17.9302 3.95651 17.6895 4.64137 17.6531 5.35183C17.6416 5.39479 17.6393 5.43968 17.6463 5.4836C17.6534 5.52751 17.6696 5.56944 17.6939 5.60666C17.8005 5.68626 17.9341 5.72101 18.066 5.70349H22.6222C22.8515 5.70349 22.9688 5.5455 22.9688 5.22442Z" fill="#F6DDAA"/>
<path d="M30.5781 0.240051H39.079C39.1987 0.240418 39.315 0.279776 39.4103 0.352171C39.4568 0.388005 39.4941 0.43448 39.5189 0.48769C39.5437 0.5409 39.5554 0.599293 39.553 0.657962V13.8375C39.5615 13.9026 39.5528 13.9689 39.5278 14.0297C39.5027 14.0905 39.4622 14.1437 39.4103 14.184C39.3124 14.2494 39.1968 14.2832 39.079 14.2809H36.9742C36.6786 14.2809 36.5308 14.1432 36.5308 13.868V3.26736C36.5308 2.99215 36.4238 2.85454 36.2097 2.85454H33.2181C32.9836 2.85454 32.8664 2.99215 32.8664 3.26736V6.13158C32.847 7.39385 32.7466 8.65358 32.5657 9.90298C32.4512 10.7468 32.2089 11.5682 31.8471 12.3391C31.5631 12.9365 31.1445 13.4599 30.624 13.868C30.0695 14.2821 29.4651 14.6245 28.8249 14.8873C28.731 14.9308 28.6272 14.9484 28.5242 14.9383C28.4274 14.9383 28.3357 14.8364 28.2541 14.6682L27.5508 13.2972C27.5125 13.2392 27.4884 13.173 27.4805 13.1039C27.4725 13.0349 27.4809 12.9649 27.5049 12.8997C27.5844 12.7789 27.6886 12.6764 27.8107 12.599C28.2324 12.3585 28.6169 12.0581 28.9523 11.7071C29.2676 11.3541 29.5023 10.9367 29.6404 10.484C29.8197 9.87123 29.9308 9.24053 29.9716 8.60337C30.0328 7.84909 30.0685 6.90115 30.0685 5.75444V0.693638C30.0685 0.392945 30.2366 0.240051 30.5781 0.240051Z" fill="#F6DDAA"/>
<path d="M43.0234 13.7712C43.0234 11.5865 43.0234 9.41714 43.0234 7.26303C43.0234 5.10892 43.0234 2.93951 43.0234 0.754823C43.0234 0.433745 43.2018 0.275757 43.5586 0.275757H45.4494C45.8265 0.275757 46.0151 0.433745 46.0151 0.754823V4.76066C46.0151 4.91355 46.1017 4.9849 46.275 4.9849H49.6591C50.3908 4.97047 51.1181 5.10036 51.7996 5.36714C52.3738 5.59839 52.8942 5.94535 53.3285 6.38644C53.7413 6.80887 54.0623 7.31206 54.2714 7.86442C54.4924 8.41245 54.6116 8.99621 54.623 9.58702C54.625 10.1912 54.5161 10.7906 54.3019 11.3555C54.0914 11.9337 53.7596 12.4602 53.3289 12.8997C52.8982 13.3392 52.3785 13.6815 51.8047 13.9037C51.1091 14.1708 50.3683 14.3006 49.6234 14.286H43.5637C43.2018 14.286 43.0234 14.1178 43.0234 13.7763V13.7712ZM49.6947 11.7326C49.9907 11.7507 50.2868 11.6993 50.5594 11.5825C50.832 11.4657 51.0734 11.2867 51.2645 11.0599C51.6099 10.6621 51.8031 10.1546 51.8098 9.6278C51.8267 9.34313 51.7872 9.05793 51.6936 8.78856C51.6 8.51919 51.4542 8.27095 51.2645 8.05808C51.0547 7.86309 50.8072 7.71319 50.5372 7.61764C50.2672 7.5221 49.9805 7.48293 49.6947 7.50257H46.3667C46.1527 7.50257 46.0457 7.5943 46.0457 7.78797V11.5135C46.0457 11.6613 46.1527 11.7377 46.3667 11.7377L49.6947 11.7326Z" fill="#F6DDAA"/>
<path d="M64.3983 9.69909C64.485 9.78064 64.5461 9.78064 64.5869 9.69909L66.177 6.22839L68.7762 0.754771C68.8466 0.605044 68.9514 0.474073 69.082 0.372535C69.224 0.2962 69.3851 0.262574 69.5458 0.275704H71.2837C71.6506 0.275704 71.8341 0.443888 71.8341 0.785352V13.7712C71.8341 14.1126 71.6506 14.2808 71.2837 14.2808H69.3572C68.9902 14.2808 68.8068 14.1228 68.8068 13.8069V6.82977C68.8068 6.66159 68.7762 6.58515 68.7099 6.59024C68.6437 6.59534 68.5978 6.66159 68.5519 6.76862L67.6601 8.6798L65.6215 12.757C65.5584 12.8705 65.4851 12.978 65.4023 13.0781C65.3443 13.1365 65.2739 13.1811 65.1962 13.2085C65.1185 13.2359 65.0357 13.2453 64.9538 13.2361H63.7969C63.6651 13.244 63.5334 13.2177 63.4147 13.1596C63.2955 13.0581 63.1984 12.9332 63.1293 12.7927L61.3812 9.13338L60.2294 6.67178C60.1886 6.58514 60.1428 6.54437 60.102 6.54437C60.0612 6.54437 60.0357 6.63101 60.0357 6.7992V13.7712C60.046 13.8405 60.04 13.9113 60.018 13.9778C59.9961 14.0443 59.9588 14.1048 59.9093 14.1544C59.8597 14.2039 59.7992 14.2412 59.7327 14.2631C59.6662 14.2851 59.5954 14.2911 59.5261 14.2808H57.6812C57.2989 14.2808 57.1104 14.1228 57.1104 13.8069V0.81593C57.1112 0.68604 57.1483 0.558962 57.2174 0.448983C57.2736 0.383065 57.3457 0.332561 57.4268 0.302242C57.508 0.271923 57.5955 0.262791 57.6812 0.275704H59.3681C59.5577 0.24999 59.7502 0.295377 59.9083 0.403116C60.013 0.516204 60.099 0.645229 60.1631 0.785352L62.9305 6.52908L64.3983 9.71438V9.69909Z" fill="#F6DDAA"/>
<path d="M86.5066 7.03879C86.5111 7.25743 86.4307 7.46931 86.2824 7.62998C86.2195 7.7041 86.1415 7.76385 86.0536 7.80518C85.9657 7.84651 85.8699 7.86845 85.7727 7.86951H78.6071C78.5257 7.86414 78.4442 7.8769 78.3684 7.90687C78.2926 7.93684 78.2244 7.98326 78.1688 8.0428C78.1164 8.09585 78.075 8.15873 78.047 8.22783C78.019 8.29693 78.005 8.37087 78.0057 8.44542V8.99074C77.9962 9.73195 78.2675 10.4493 78.765 10.9988C79.0153 11.2781 79.3241 11.4988 79.6694 11.645C80.0148 11.7912 80.3881 11.8595 80.7629 11.8448C81.3406 11.8624 81.9099 11.7023 82.3937 11.3861C82.8431 11.0834 83.2421 10.7119 83.5761 10.2852C83.6557 10.1816 83.7612 10.1008 83.8819 10.0508C83.9523 10.0383 84.0247 10.0419 84.0935 10.0613C84.1624 10.0807 84.2259 10.1155 84.2794 10.1629L85.681 11.0497C85.8169 11.128 85.9363 11.2318 86.0326 11.3555C86.0624 11.4137 86.0749 11.4792 86.0686 11.5442C86.0622 11.6093 86.0374 11.6711 85.9969 11.7225C85.5169 12.638 84.751 13.3717 83.8157 13.812C82.1147 14.5718 80.1908 14.6663 78.4236 14.077C77.742 13.8467 77.113 13.4828 76.5736 13.0068C76.0604 12.5452 75.6579 11.9738 75.3963 11.3351C75.1133 10.6396 74.9729 9.8944 74.9835 9.14363V5.56081C74.9733 4.78549 75.1189 4.01602 75.4116 3.29798C75.685 2.63838 76.0929 2.04302 76.6092 1.54988C77.1321 1.0538 77.749 0.667373 78.4236 0.413366C79.1636 0.130715 79.9504 -0.00935252 80.7425 0.000551878C81.5398 -0.0087883 82.3323 0.125879 83.0818 0.398077C83.761 0.643062 84.3847 1.02074 84.9165 1.50911C85.4344 1.99866 85.8366 2.5976 86.0938 3.2623C86.3755 3.98659 86.5156 4.75822 86.5066 5.53533V7.06427V7.03879ZM83.4844 5.22444C83.4756 4.51004 83.2034 3.82403 82.7199 3.29798C82.4659 3.05186 82.1634 2.86132 81.8318 2.73848C81.5001 2.61564 81.1465 2.56319 80.7934 2.58447C80.4313 2.55249 80.0668 2.60802 79.7307 2.74638C79.3945 2.88475 79.0966 3.10189 78.8619 3.37952C78.4437 3.95543 78.2028 4.64094 78.1688 5.35186C78.1545 5.39477 78.1512 5.4406 78.1592 5.48512C78.1672 5.52964 78.1863 5.57144 78.2146 5.60668C78.3186 5.68372 78.4479 5.71834 78.5765 5.70351H83.1327C83.3672 5.70351 83.4844 5.54552 83.4844 5.22444Z" fill="#F6DDAA"/>
<path d="M97.6779 0.719118C97.6779 0.403136 97.8614 0.240051 98.2181 0.240051H100.129C100.512 0.240051 100.705 0.403136 100.705 0.719118V13.8069C100.705 14.1229 100.527 14.2809 100.165 14.2809H98.2487C97.8716 14.2809 97.6779 14.1331 97.6779 13.8375V8.48615C97.6779 8.29758 97.5709 8.20075 97.3619 8.20075H92.8108C92.7682 8.19583 92.725 8.20218 92.6857 8.21918C92.6463 8.23617 92.6121 8.26321 92.5865 8.29758C92.5482 8.35315 92.5269 8.41868 92.5254 8.48615V13.8069C92.5254 14.1229 92.3419 14.2809 91.98 14.2809H90.0434C89.6764 14.2809 89.498 14.1331 89.498 13.8375V0.719118C89.498 0.403136 89.6662 0.240051 90.0077 0.240051H92.0106C92.3521 0.240051 92.5203 0.403136 92.5203 0.719118V5.65251C92.5217 5.72158 92.543 5.78879 92.5814 5.84618C92.6077 5.87981 92.642 5.90629 92.6812 5.92321C92.7204 5.94013 92.7632 5.94694 92.8057 5.94301H97.3925C97.4316 5.94819 97.4715 5.94419 97.5088 5.93134C97.5462 5.9185 97.58 5.89714 97.6077 5.86897C97.6354 5.8408 97.6561 5.80658 97.6683 5.76902C97.6805 5.73145 97.6838 5.69156 97.6779 5.65251V0.719118Z" fill="#F6DDAA"/>
<path d="M104.115 0.688482C104.115 0.392887 104.278 0.239994 104.625 0.239994H106.607C106.821 0.239994 106.954 0.285859 107.005 0.372499C107.065 0.477602 107.093 0.598061 107.086 0.71906V8.64409C107.086 8.81737 107.132 8.89891 107.229 8.88362C107.28 8.87605 107.328 8.85635 107.37 8.82619C107.412 8.79604 107.445 8.7563 107.468 8.71034L108.997 6.19778L112.494 0.754735C112.597 0.613758 112.717 0.485462 112.85 0.372499C113.001 0.27423 113.18 0.227726 113.36 0.239994H115.032C115.099 0.22627 115.168 0.228868 115.234 0.247576C115.3 0.266284 115.361 0.300552 115.411 0.347498C115.46 0.394443 115.498 0.452696 115.521 0.517354C115.544 0.582012 115.551 0.651186 115.541 0.71906V13.8374C115.55 13.8981 115.544 13.96 115.525 14.0181C115.505 14.0762 115.472 14.1289 115.429 14.1721C115.385 14.2152 115.332 14.2475 115.274 14.2663C115.215 14.2852 115.153 14.2902 115.093 14.2808H113.054C112.713 14.2808 112.545 14.1228 112.545 13.8068V5.71871C112.545 5.57091 112.545 5.49956 112.468 5.50975C112.409 5.52877 112.358 5.56857 112.325 5.62188L110.684 8.13954L107.025 13.868C106.872 14.1024 106.75 14.2298 106.658 14.2502C106.537 14.2727 106.414 14.283 106.291 14.2808H104.62C104.278 14.2808 104.11 14.1228 104.11 13.8068V0.688482H104.115Z" fill="#F6DDAA"/>
<path d="M118.752 4.54151C118.731 3.96717 118.823 3.39421 119.023 2.85548C119.223 2.31675 119.528 1.82285 119.919 1.40208C120.316 0.996753 120.793 0.678617 121.319 0.468005C121.846 0.257393 122.411 0.158936 122.977 0.178925H129.399C129.801 0.178925 130 0.37259 130 0.754826V13.7407C130 14.1025 129.832 14.2809 129.491 14.2809H127.503C127.136 14.2809 126.958 14.0923 126.958 13.7101V9.58703C126.964 9.53143 126.958 9.47502 126.94 9.42214C126.921 9.36927 126.891 9.32131 126.851 9.28196C126.811 9.2426 126.763 9.21289 126.71 9.1951C126.657 9.17731 126.6 9.1719 126.545 9.17931H123.997C123.895 9.17141 123.795 9.19839 123.711 9.25576C123.639 9.32164 123.583 9.40372 123.548 9.49529C123.212 10.1986 122.87 10.8968 122.529 11.595C122.187 12.2933 121.846 13.0068 121.509 13.7305C121.434 13.8822 121.336 14.0215 121.219 14.1433C121.013 14.2786 120.765 14.3348 120.521 14.3013H118.839C118.304 14.3013 118.156 14.077 118.39 13.6336L120.75 9.01622C120.745 8.97149 120.756 8.92644 120.781 8.88881C120.806 8.85155 120.817 8.80618 120.811 8.7614C120.8 8.67434 120.754 8.59552 120.684 8.54225C120.093 8.05857 119.61 7.45605 119.267 6.77377C118.927 6.08637 118.752 5.32886 118.757 4.5619L118.752 4.54151ZM123.461 2.66091C123.201 2.63668 122.938 2.67971 122.699 2.7859C122.46 2.89209 122.252 3.05787 122.096 3.26739C121.805 3.72305 121.661 4.25652 121.683 4.79634C121.698 5.12862 121.785 5.45365 121.938 5.74938C122.117 6.1228 122.405 6.43357 122.763 6.64126C122.941 6.73367 123.139 6.77763 123.339 6.76867H126.616C126.871 6.76867 126.998 6.63107 126.998 6.35586V2.9616C126.998 2.74755 126.871 2.64053 126.616 2.64053L123.461 2.66091Z" fill="#F6DDAA"/>
</svg>
